<?xml version="1.0" standalone="no"?>
<!DOCTYPE svg PUBLIC "-//W3C//DTD SVG 20010904//EN"
 "http://www.w3.org/TR/2001/REC-SVG-20010904/DTD/svg10.dtd">
<svg version="1.0" xmlns="http://www.w3.org/2000/svg"
 width="1728.000000pt" height="1728.000000pt" viewBox="0 0 1728.000000 1728.000000"
 preserveAspectRatio="xMidYMid meet">
<metadata>
Created by potrace 1.14, written by Peter Selinger 2001-2017
</metadata>
<g transform="translate(0.000000,1728.000000) scale(0.100000,-0.100000)"
fill="#000000" stroke="none">
<path d="M8639 11203 c-5 -59 -2 -173 4 -173 5 0 6 -4 3 -9 -5 -8 -8 -66 -5
-111 0 -8 0 -35 0 -60 -1 -25 0 -56 1 -70 l3 -25 1435 -1 c789 -1 1438 0 1442
2 3 3 3 18 -2 34 -5 17 -6 30 -2 30 8 0 6 106 -2 127 -3 7 -2 13 2 13 8 0 7
143 -2 165 -3 8 -2 17 3 19 4 3 6 19 3 36 l-4 30 -1439 0 c-792 0 -1439 -3
-1440 -7z"/>
<path d="M14399 11203 c0 -5 0 -39 0 -78 2 -89 2 -69 0 -221 -1 -73 1 -136 4
-142 4 -6 519 -9 1442 -9 l1435 0 0 228 0 229 -1440 0 c-792 0 -1440 -3 -1441
-7z"/>
<path d="M8698 10272 c-46 -2 -58 -6 -59 -20 -1 -25 0 -170 2 -179 1 -4 1 -11
-1 -15 -1 -5 -1 -28 -1 -53 0 -25 0 -48 1 -52 2 -5 1 -12 0 -18 -2 -10 0 -82
2 -108 1 -11 267 -13 1440 -13 l1438 0 1 26 c2 62 0 121 -6 130 -3 6 -3 10 2
10 9 0 8 83 -1 106 -3 8 -2 14 2 14 8 0 6 85 -2 106 -3 8 -2 14 3 14 13 0 0
50 -13 51 -52 2 -2764 3 -2808 1z"/>
<path d="M14438 10272 c-32 -3 -37 -6 -37 -30 0 -15 -2 -57 -3 -95 -2 -37 1
-67 5 -67 5 0 5 -5 1 -11 -9 -15 -9 -237 0 -247 4 -4 653 -7 1442 -7 l1434 -1
0 228 c0 210 -1 228 -17 228 -101 3 -2797 4 -2825 2z"/>
<path d="M17 9332 c-16 -3 -17 -24 -15 -230 l3 -227 2873 0 c1581 0 2876 4
2879 8 3 5 5 75 4 155 -1 81 -1 156 -1 167 0 45 -1 111 -2 120 -1 9 -5694 16
-5741 7z"/>
<path d="M11537 9332 c-9 -2 -17 -9 -18 -15 -3 -36 1 -109 6 -117 3 -6 3 -10
-2 -10 -7 0 -9 -65 -3 -95 2 -6 1 -14 0 -20 -1 -5 -1 -32 0 -60 0 -27 1 -57 0
-65 -1 -38 1 -64 6 -69 9 -9 2865 -7 2871 2 9 14 9 127 0 127 -5 0 -5 5 -2 10
9 14 10 134 1 148 -3 6 -3 13 1 15 9 6 7 136 -2 145 -5 6 -2828 10 -2858 4z"/>
<path d="M5777 8392 c-19 -4 -19 -8 -17 -132 0 -47 1 -89 1 -95 0 -5 -1 -34
-3 -63 -2 -28 1 -52 5 -52 5 0 5 -5 2 -11 -13 -19 -7 -83 7 -93 17 -12 5732
-15 5744 -3 9 9 8 112 -1 127 -3 5 -3 10 2 10 9 0 8 142 -1 166 -3 7 -2 14 2
14 8 0 6 120 -3 128 -6 6 -5707 10 -5738 4z"/>
<path d="M14402 8392 c-5 -1 -7 -271 -3 -432 l1 -25 1432 2 c788 0 1436 1
1441 2 4 1 7 103 7 229 l0 227 -1435 0 c-789 0 -1438 -1 -1443 -3z"/>
<path d="M2874 7449 c-2 -4 0 -10 6 -14 6 -4 8 -11 4 -16 -3 -5 -5 -33 -5 -62
1 -68 1 -84 0 -99 -1 -7 -1 -29 0 -48 1 -19 1 -57 1 -85 -1 -104 1 -125 13
-126 56 -3 2858 -1 2862 3 5 4 9 135 5 153 -1 6 -1 15 0 20 1 6 2 28 1 50 -1
58 -1 70 0 119 1 24 -1 48 -5 54 -3 6 -2 13 4 17 7 4 7 12 1 23 -9 16 -110 17
-1446 17 -790 1 -1438 -2 -1441 -6z"/>
<path d="M11519 7441 c0 -9 0 -47 0 -86 1 -38 1 -77 1 -85 -1 -154 1 -264 5
-268 2 -3 1299 -5 2880 -6 l2875 -1 -2 230 -3 230 -2877 1 c-2597 0 -2878 -1
-2879 -15z"/>
<path d="M5756 6513 c-2 -2 0 -20 4 -39 4 -18 5 -34 1 -34 -7 0 -5 -86 3 -106
3 -8 2 -14 -2 -14 -8 0 -6 -85 2 -106 3 -8 2 -14 -2 -14 -4 0 -6 -19 -5 -42 2
-24 4 -55 4 -70 l2 -28 1441 0 1441 0 -2 110 c0 61 -4 117 -6 124 -3 8 -3 16
0 19 4 5 6 63 4 175 l-1 29 -1440 0 c-792 0 -1442 -2 -1444 -4z"/>
<path d="M11523 6504 c-8 -22 -8 -154 0 -154 5 0 5 -5 2 -10 -9 -14 -10 -134
-1 -148 3 -6 3 -13 -1 -15 -5 -3 -7 -20 -6 -39 1 -18 2 -43 2 -55 l1 -23 2880
0 2880 0 -2 228 -3 227 -2873 1 c-2307 0 -2875 -2 -2879 -12z"/>
</g>
</svg>
