<?xml version="1.0" encoding="UTF-8"?>
<svg width="28.533mm" height="8.5037mm" version="1.1" viewBox="0 0 28.533 8.5037" xmlns="http://www.w3.org/2000/svg">
<g transform="translate(-31.145 -60.472)">
<g transform="matrix(.35278 0 0 -.35278 1.4477 296.31)">
<path d="m138.1 666.36h-13.483v2.142h13.483z" fill="#fab235"/>
<path d="m165.06 666.36h-13.484v2.142h13.484z" fill="#fab235"/>
<path d="m138.1 661.97h-13.483v2.144h13.483z" fill="#99d64b"/>
<path d="m165.06 661.97h-13.484v2.144h13.484z" fill="#99d64b"/>
<path d="m111.14 657.58h-13.484v2.142h13.484z" fill="#66cde2"/>
<path d="m151.58 657.58h-13.484v2.142h13.484z" fill="#66cde2"/>
<path d="m97.665 657.58h-13.484v2.144h13.484z" fill="#66cde2"/>
<path d="m124.62 653.18h-13.483v2.142h13.483z" fill="#9d65b9"/>
<path d="m138.1 653.18h-13.483v2.142h13.483z" fill="#9d65b9"/>
<path d="m165.06 653.18h-13.484v2.142h13.484z" fill="#9d65b9"/>
<path d="m165.06 648.79h-13.484v2.142h13.484z" fill="#f25182"/>
<path d="m111.14 648.79h-13.484v2.144h13.484z" fill="#f25182"/>
<path d="m151.58 648.79h-13.484v2.144h13.484z" fill="#f25182"/>
<path d="m124.62 644.4h-13.483v2.142h13.483z" fill="#f25937"/>
<path d="m151.58 644.4h-13.484v2.142h13.484z" fill="#f25937"/>
<path d="m165.06 644.4h-13.484v2.142h13.484z" fill="#f25937"/>
</g>
</g>
</svg>
