<svg width="197" height="197" xmlns="http://www.w3.org/2000/svg" xmlns:xlink="http://www.w3.org/1999/xlink" xml:space="preserve" overflow="hidden"><defs><clipPath id="clip0"><rect x="2300" y="206" width="197" height="197"/></clipPath></defs><g clip-path="url(#clip0)" transform="translate(-2300 -206)"><path d="M2398.5 208C2452.35 208 2496 251.431 2496 305 2496 358.569 2452.35 402 2398.5 402 2344.65 402 2301 358.569 2301 305 2301 251.431 2344.65 208 2398.5 208Z" fill="#cb61ae" fill-rule="evenodd" fill-opacity="1"/><path d="M2463.27 307C2466.43 307 2469 309.546 2469 312.674 2469 314.301 2468.28 315.751 2467.17 316.779L2436.12 347.233 2436.11 347.219C2431.67 351.756 2425.45 354.584 2418.56 354.584L2418.54 354.584 2418.54 354.62 2380.99 354.62C2378.96 354.62 2377.18 355.248 2376.35 355.989L2363.16 369.036C2362.19 370 2360.63 369.995 2359.66 369.036L2338.97 348.565C2338 347.606 2338 346.056 2338.97 345.096L2365.71 318.706C2365.79 318.629 2365.93 318.556 2366.03 318.474 2367.71 316.992 2369.89 316.065 2372.32 316.065L2410.8 316.065C2416.03 316.065 2420.28 320.266 2420.28 325.444 2420.28 330.626 2416.03 334.822 2410.8 334.822L2388.01 334.822 2387.6 334.827C2385.14 334.827 2383.37 336.482 2383.37 339.591L2384 339.564 2410.74 339.564C2418.53 339.564 2424.85 333.308 2424.85 325.598 2424.85 325.325 2424.82 325.062 2424.8 324.802L2460.42 307.823C2460.44 307.8 2460.49 307.809 2460.53 307.786 2461.35 307.327 2462.25 307 2463.27 307Z" fill="#FFFEFD" fill-rule="evenodd" fill-opacity="1"/><path d="M2365 248 2365 251.562 2363.22 252.566C2362.78 253.272 2362.52 254.383 2362.52 256 2362.52 257.617 2362.78 258.727 2363.22 259.434L2365 260.438 2365 264 2359.98 261.907C2358.74 260.54 2358 258.539 2358 256 2358 253.46 2358.74 251.459 2359.98 250.093L2365 248Z" fill="#FFFEFD" fill-rule="evenodd" fill-opacity="1"/><path d="M2365.01 248C2368.47 248 2371 250.923 2371 256 2371 261.077 2368.47 264 2365.01 264L2365 263.996 2365 260.436 2365.01 260.441C2366.24 260.441 2367.13 259.232 2367.13 256 2367.13 252.768 2366.24 251.558 2365.01 251.558L2365 251.564 2365 248.004 2365.01 248Z" fill="#FFFEFD" fill-rule="evenodd" fill-opacity="1"/><path d="M2372 249 2379 249 2379 264 2374.77 264 2374.77 252.279 2372 252.279 2372 249Z" fill="#FFFEFD" fill-rule="evenodd" fill-opacity="1"/><path d="M2388 248 2388 251.562 2386.47 252.566C2386.09 253.272 2385.87 254.383 2385.87 256 2385.87 257.617 2386.09 258.727 2386.47 259.434L2388 260.438 2388 264 2383.7 261.907C2382.63 260.54 2382 258.539 2382 256 2382 253.46 2382.63 251.459 2383.7 250.093L2388 248Z" fill="#FFFEFD" fill-rule="evenodd" fill-opacity="1"/><path d="M2388.01 248C2392.05 248 2395 250.923 2395 256 2395 261.077 2392.05 264 2388.01 264L2388 263.996 2388 260.436 2388.01 260.441C2389.44 260.441 2390.48 259.232 2390.48 256 2390.48 252.768 2389.44 251.558 2388.01 251.558L2388 251.564 2388 248.004 2388.01 248Z" fill="#FFFEFD" fill-rule="evenodd" fill-opacity="1"/><path d="M2403 248 2403 251.562 2401.22 252.566C2400.78 253.272 2400.52 254.383 2400.52 256 2400.52 257.617 2400.78 258.727 2401.22 259.434L2403 260.438 2403 264 2397.98 261.907C2396.74 260.54 2396 258.539 2396 256 2396 253.46 2396.74 251.459 2397.98 250.093L2403 248Z" fill="#FFFEFD" fill-rule="evenodd" fill-opacity="1"/><path d="M2403.01 248C2407.05 248 2410 250.923 2410 256 2410 261.077 2407.05 264 2403.01 264L2403 263.996 2403 260.436 2403.01 260.441C2404.44 260.441 2405.48 259.232 2405.48 256 2405.48 252.768 2404.44 251.558 2403.01 251.558L2403 251.564 2403 248.004 2403.01 248Z" fill="#FFFEFD" fill-rule="evenodd" fill-opacity="1"/><path d="M2418 248 2418 251.562 2416.22 252.566C2415.78 253.272 2415.52 254.383 2415.52 256 2415.52 257.617 2415.78 258.727 2416.22 259.434L2418 260.438 2418 264 2412.98 261.907C2411.74 260.54 2411 258.539 2411 256 2411 253.46 2411.74 251.459 2412.98 250.093L2418 248Z" fill="#FFFEFD" fill-rule="evenodd" fill-opacity="1"/><path d="M2418.01 248C2421.47 248 2424 250.923 2424 256 2424 261.077 2421.47 264 2418.01 264L2418 263.996 2418 260.436 2418.01 260.441C2419.24 260.441 2420.13 259.232 2420.13 256 2420.13 252.768 2419.24 251.558 2418.01 251.558L2418 251.564 2418 248.004 2418.01 248Z" fill="#FFFEFD" fill-rule="evenodd" fill-opacity="1"/><path d="M2425 249 2432 249 2432 264 2427.77 264 2427.77 252.279 2425 252.279 2425 249Z" fill="#FFFEFD" fill-rule="evenodd" fill-opacity="1"/><path d="M2434 249 2441 249 2441 264 2436.77 264 2436.77 252.279 2434 252.279 2434 249Z" fill="#FFFEFD" fill-rule="evenodd" fill-opacity="1"/><path d="M2381 269 2388 269 2388 284 2383.77 284 2383.77 272.279 2381 272.279 2381 269Z" fill="#FFFEFD" fill-rule="evenodd" fill-opacity="1"/><path d="M2397 269 2397 272.339 2395.22 273.281C2394.78 273.943 2394.52 274.984 2394.52 276.5 2394.52 278.016 2394.78 279.057 2395.22 279.72L2397 280.661 2397 284 2391.98 282.038C2390.74 280.757 2390 278.881 2390 276.5 2390 274.119 2390.74 272.243 2391.98 270.963L2397 269Z" fill="#FFFEFD" fill-rule="evenodd" fill-opacity="1"/><path d="M2397.01 269C2401.05 269 2404 271.741 2404 276.5 2404 281.259 2401.05 284 2397.01 284L2397 283.996 2397 280.659 2397.01 280.664C2398.44 280.664 2399.48 279.53 2399.48 276.5 2399.48 273.47 2398.44 272.336 2397.01 272.336L2397 272.341 2397 269.004 2397.01 269Z" fill="#FFFEFD" fill-rule="evenodd" fill-opacity="1"/><path d="M2404 269 2411 269 2411 284 2406.77 284 2406.77 272.279 2404 272.279 2404 269Z" fill="#FFFEFD" fill-rule="evenodd" fill-opacity="1"/><path d="M2420 269 2420 272.339 2418.47 273.281C2418.1 273.943 2417.87 274.984 2417.87 276.5 2417.87 278.016 2418.1 279.057 2418.47 279.72L2420 280.661 2420 284 2415.7 282.038C2414.63 280.757 2414 278.881 2414 276.5 2414 274.119 2414.63 272.243 2415.7 270.963L2420 269Z" fill="#FFFEFD" fill-rule="evenodd" fill-opacity="1"/><path d="M2420.01 269C2424.05 269 2427 271.741 2427 276.5 2427 281.259 2424.05 284 2420.01 284L2420 283.996 2420 280.659 2420.01 280.664C2421.44 280.664 2422.48 279.53 2422.48 276.5 2422.48 273.47 2421.44 272.336 2420.01 272.336L2420 272.341 2420 269.004 2420.01 269Z" fill="#FFFEFD" fill-rule="evenodd" fill-opacity="1"/><path d="M2435 269 2435 272.339 2433.22 273.28C2432.78 273.943 2432.52 274.984 2432.52 276.5 2432.52 278.016 2432.78 279.057 2433.22 279.72L2435 280.661 2435 284 2429.98 282.037C2428.74 280.757 2428 278.881 2428 276.5 2428 274.119 2428.74 272.243 2429.98 270.963L2435 269Z" fill="#FFFEFD" fill-rule="evenodd" fill-opacity="1"/><path d="M2435.01 269C2439.05 269 2442 271.741 2442 276.5 2442 281.259 2439.05 284 2435.01 284L2435 283.996 2435 280.659 2435.01 280.664C2436.44 280.664 2437.48 279.53 2437.48 276.5 2437.48 273.47 2436.44 272.336 2435.01 272.336L2435 272.341 2435 269.004 2435.01 269Z" fill="#FFFEFD" fill-rule="evenodd" fill-opacity="1"/><path d="M2403 289 2403 292.344 2401.22 293.283C2400.78 293.944 2400.52 294.984 2400.52 296.5 2400.52 298.016 2400.78 299.057 2401.22 299.72L2403 300.661 2403 304 2397.98 302.037C2396.74 300.757 2396 298.881 2396 296.5 2396 294.119 2396.74 292.243 2397.98 290.963L2403 289Z" fill="#FFFEFD" fill-rule="evenodd" fill-opacity="1"/><path d="M2403.01 289C2407.05 289 2410 291.741 2410 296.5 2410 301.259 2407.05 304 2403.01 304L2403 303.996 2403 300.659 2403.01 300.664C2404.44 300.664 2405.48 299.53 2405.48 296.5 2405.48 293.47 2404.44 292.341 2403.01 292.341L2403 292.345 2403 289.004 2403.01 289Z" fill="#FFFEFD" fill-rule="evenodd" fill-opacity="1"/><path d="M2410 289 2417 289 2417 304 2412.77 304 2412.77 292.279 2410 292.279 2410 289Z" fill="#FFFEFD" fill-rule="evenodd" fill-opacity="1"/><path d="M2419 289 2426 289 2426 304 2421.77 304 2421.77 292.279 2419 292.279 2419 289Z" fill="#FFFEFD" fill-rule="evenodd" fill-opacity="1"/><path d="M2435 289 2435 292.344 2433.22 293.283C2432.78 293.944 2432.52 294.984 2432.52 296.5 2432.52 298.016 2432.78 299.057 2433.22 299.72L2435 300.661 2435 304 2429.98 302.037C2428.74 300.757 2428 298.881 2428 296.5 2428 294.119 2428.74 292.243 2429.98 290.963L2435 289Z" fill="#FFFEFD" fill-rule="evenodd" fill-opacity="1"/><path d="M2435.01 289C2439.05 289 2442 291.741 2442 296.5 2442 301.259 2439.05 304 2435.01 304L2435 303.996 2435 300.659 2435.01 300.664C2436.44 300.664 2437.48 299.53 2437.48 296.5 2437.48 293.47 2436.44 292.341 2435.01 292.341L2435 292.345 2435 289.004 2435.01 289Z" fill="#FFFEFD" fill-rule="evenodd" fill-opacity="1"/></g></svg>