<svg width="197" height="197" xmlns="http://www.w3.org/2000/svg" xmlns:xlink="http://www.w3.org/1999/xlink" xml:space="preserve" overflow="hidden"><defs><clipPath id="clip0"><rect x="2300" y="206" width="197" height="197"/></clipPath></defs><g clip-path="url(#clip0)" transform="translate(-2300 -206)"><path d="M2399.5 208C2453.35 208 2497 251.655 2497 305.5 2497 359.345 2453.35 403 2399.5 403 2345.65 403 2302 359.345 2302 305.5 2302 251.655 2345.65 208 2399.5 208Z" fill="#52d3f7" fill-rule="evenodd" fill-opacity="1"/><path d="M2398.98 242C2401.17 242.009 2402.95 243.817 2402.95 246.036L2402.99 262.969C2403 265.178 2401.22 266.991 2399.02 266.991 2396.83 267 2395.06 265.206 2395.05 262.987L2395 246.041C2395 243.817 2396.79 242.005 2398.98 242Z" fill="#FFFEFD" fill-rule="evenodd" fill-opacity="1"/><path d="M2434.12 254.092C2435.15 254 2436.22 254.306 2437.07 255.029 2438.78 256.493 2439 259.087 2437.57 260.834L2426.6 274.06C2425.17 275.779 2422.63 276 2420.93 274.545 2419.22 273.09 2419 270.486 2420.44 268.768L2431.39 255.547C2432.1 254.676 2433.09 254.185 2434.12 254.092Z" fill="#FFFEFD" fill-rule="evenodd" fill-opacity="1"/><path d="M2452.03 283.406C2454.17 283 2456.24 284.519 2456.62 286.772 2457 289.04 2455.56 291.204 2453.39 291.61L2436.95 294.609C2434.8 295 2432.75 293.486 2432.38 291.228 2432 288.96 2433.45 286.792 2435.59 286.414L2452.03 283.406Z" fill="#FFFEFD" fill-rule="evenodd" fill-opacity="1"/><path d="M2363.88 254.092C2364.91 254.185 2365.9 254.676 2366.61 255.547L2377.56 268.768C2379 270.486 2378.78 273.09 2377.07 274.545 2375.37 276 2372.83 275.779 2371.4 274.06L2360.43 260.834C2359 259.087 2359.22 256.493 2360.93 255.029 2361.78 254.306 2362.85 254 2363.88 254.092Z" fill="#FFFEFD" fill-rule="evenodd" fill-opacity="1"/><path d="M2345.97 283.406 2362.41 286.414C2364.55 286.792 2366 288.96 2365.62 291.228 2365.25 293.486 2363.2 295 2361.05 294.609L2344.61 291.61C2342.44 291.204 2341 289.04 2341.38 286.772 2341.76 284.519 2343.83 283 2345.97 283.406Z" fill="#FFFEFD" fill-rule="evenodd" fill-opacity="1"/><path d="M2387.75 348 2410.25 348C2411.22 348 2412 348.785 2412 349.76L2412 353.24C2412 354.211 2411.22 355 2410.25 355L2387.75 355C2386.78 355 2386 354.211 2386 353.24L2386 349.76C2386 348.785 2386.78 348 2387.75 348Z" fill="#FFFEFD" fill-rule="evenodd" fill-opacity="1"/><path d="M2399.09 274C2410.6 274 2420.38 281 2424.23 290.822 2424.25 290.859 2424.26 290.891 2424.27 290.928 2424.53 291.589 2424.76 292.259 2424.96 292.943 2425 293.067 2425.03 293.197 2425.06 293.321 2425.23 293.931 2425.39 294.541 2425.51 295.169 2425.54 295.34 2425.56 295.511 2425.6 295.687 2425.84 297.105 2426 298.552 2426 300.039 2426 301.213 2425.89 302.359 2425.74 303.486 2424.69 312.597 2420.12 317.776 2417.8 322.161 2415.17 327.127 2412.4 334.256 2412.4 341.006 2412.4 342.919 2411.62 344 2410.1 344L2387.86 344C2386.34 344 2385.55 342.919 2385.55 341.006 2385.55 334.256 2382.79 327.127 2380.16 322.161 2377.52 317.189 2372 311.206 2372 299.614 2372 297.997 2372.28 296.352 2372.75 294.712 2375.3 282.889 2386.12 274 2399.09 274Z" fill="#FFFEFD" fill-rule="evenodd" fill-opacity="1"/><path d="M2391.45 358 2406.55 358C2407.35 358 2408 358.658 2408 359.47L2408 361.557 2407.96 361.557C2407.84 363.466 2403.89 365 2399 365 2394.11 365 2390.16 363.466 2390.04 361.557L2390 361.557 2390 359.47C2390 358.658 2390.65 358 2391.45 358Z" fill="#FFFEFD" fill-rule="evenodd" fill-opacity="1"/></g></svg>