<svg width="202" height="197" xmlns="http://www.w3.org/2000/svg" xmlns:xlink="http://www.w3.org/1999/xlink" xml:space="preserve" overflow="hidden"><defs><clipPath id="clip0"><rect x="2300" y="206" width="202" height="197"/></clipPath></defs><g clip-path="url(#clip0)" transform="translate(-2300 -206)"><path d="M2401 207C2454.57 207 2498 250.655 2498 304.5 2498 358.345 2454.57 402 2401 402 2347.43 402 2304 358.345 2304 304.5 2304 250.655 2347.43 207 2401 207Z" fill="#ff7e33" fill-rule="evenodd" fill-opacity="1"/><path d="M2358 324 2358 336.302C2355.95 336.302 2353.9 337.088 2352.34 338.661 2349.21 341.81 2349.21 346.905 2352.34 350.05L2358 352.412 2358 359.871 2357.34 360C2353.53 360 2349.72 358.537 2346.81 355.612 2341 349.762 2341 340.278 2346.81 334.428L2358 324Z" fill="#FFFEFD" fill-rule="evenodd" fill-opacity="1"/><path d="M2431.74 243.024C2434.05 243 2436.37 243.266 2438.64 243.822L2420.27 262.178C2418.68 263.754 2418.68 266.306 2420.26 267.882L2434.7 282.297C2436.27 283.872 2438.83 283.872 2440.4 282.297L2458.78 263.94C2461 272.982 2458.58 282.932 2451.51 289.996 2443.9 297.603 2432.94 299.818 2423.37 296.658L2367.93 355.745C2366.47 357.207 2364.78 358.302 2362.97 359.033L2358 360 2358 352.548C2360.06 352.548 2362.12 351.761 2363.7 350.188 2366.84 347.046 2366.84 341.955 2363.7 338.809 2362.12 337.238 2360.06 336.453 2358 336.453L2358 324.162 2406.05 279.69C2402.65 270.014 2404.81 258.817 2412.56 251.082 2417.86 245.784 2424.79 243.098 2431.74 243.024Z" fill="#FFFEFD" fill-rule="evenodd" fill-opacity="1"/></g></svg>