<svg width="197" height="197" xmlns="http://www.w3.org/2000/svg" xmlns:xlink="http://www.w3.org/1999/xlink" xml:space="preserve" overflow="hidden"><defs><clipPath id="clip0"><rect x="2300" y="206" width="197" height="197"/></clipPath></defs><g clip-path="url(#clip0)" transform="translate(-2300 -206)"><path d="M2398.5 208C2452.35 208 2496 251.655 2496 305.5 2496 359.345 2452.35 403 2398.5 403 2344.65 403 2301 359.345 2301 305.5 2301 251.655 2344.65 208 2398.5 208Z" fill="#F9B350" fill-rule="evenodd" fill-opacity="1"/><path d="M2433.9 334 2445.92 367.199C2446 367.562 2445.82 367.935 2445.47 368.068 2445.29 368.138 2445.09 368.124 2444.92 368.046L2426.11 359.737 2416.9 378.513C2416.82 378.669 2416.69 378.798 2416.52 378.862 2416.15 379 2415.76 378.811 2415.61 378.457L2404 346.404C2410.32 344.885 2415.61 340.473 2418.31 334.341 2423.43 336.323 2429 336.139 2433.9 334Z" fill="#FFFEFD" fill-rule="evenodd" fill-opacity="1"/><path d="M2362.36 334C2367.47 336.272 2373.33 336.479 2378.71 334.441 2381.42 340.435 2386.7 344.782 2393 346.384L2381.15 378.463C2380.99 378.817 2380.59 379 2380.22 378.867 2380.04 378.803 2379.91 378.674 2379.82 378.518L2370.39 359.787 2351.1 368.076C2350.93 368.154 2350.73 368.168 2350.54 368.099 2350.18 367.966 2350 367.594 2350.08 367.231L2362.36 334Z" fill="#FFFEFD" fill-rule="evenodd" fill-opacity="1"/><path d="M2398.96 235 2399 235.014 2399 254.338C2381 254.338 2366.4 268.937 2366.4 286.945 2366.4 304.948 2381 319.547 2399 319.547L2399 339 2391.01 336.367C2388.76 334.705 2387.05 332.363 2386.19 329.648 2385.9 328.801 2385.43 328.001 2384.75 327.329 2382.92 325.502 2380.2 325.124 2378 326.197 2372.93 328.861 2366.51 328.074 2362.24 323.813 2358 319.569 2357.16 313.2 2359.77 308.142 2360.17 307.346 2360.4 306.439 2360.4 305.487 2360.4 302.901 2358.74 300.71 2356.43 299.914 2350.96 298.211 2347 293.079 2347 287.046 2347 281.049 2350.94 275.918 2356.37 274.192 2357.22 273.912 2358.01 273.428 2358.69 272.756 2360.51 270.925 2360.89 268.209 2359.82 266.005 2357.16 260.938 2357.94 254.504 2362.2 250.242 2366.45 245.999 2372.81 245.152 2377.87 247.776 2378.67 248.176 2379.57 248.397 2380.53 248.397 2383.11 248.397 2385.3 246.745 2386.1 244.43 2387.8 238.958 2392.93 235 2398.96 235Z" fill="#FFFEFD" fill-rule="evenodd" fill-opacity="1"/><path d="M2399 235 2406.84 237.633C2409.04 239.295 2410.72 241.637 2411.57 244.352 2411.84 245.199 2412.32 246 2412.98 246.672 2414.77 248.503 2417.44 248.876 2419.59 247.804 2424.57 245.139 2430.87 245.926 2435.05 250.188 2439.21 254.431 2440.04 260.8 2437.47 265.858 2437.08 266.654 2436.86 267.561 2436.86 268.513 2436.86 271.1 2438.48 273.29 2440.75 274.087 2446.11 275.789 2450 280.925 2450 286.954 2450 292.951 2446.14 298.082 2440.82 299.808 2439.99 300.089 2439.2 300.572 2438.54 301.244 2436.75 303.076 2436.38 305.791 2437.43 307.995 2440.04 313.062 2439.27 319.496 2435.09 323.758 2430.93 328.001 2424.69 328.848 2419.72 326.224 2418.94 325.824 2418.05 325.603 2417.12 325.603 2414.58 325.603 2412.44 327.255 2411.66 329.57 2409.99 335.042 2404.95 339 2399.04 339L2399 338.986 2399 319.533C2416.66 319.533 2430.97 304.935 2430.97 286.931 2430.97 268.923 2416.66 254.325 2399 254.325L2399 235Z" fill="#FFFEFD" fill-rule="evenodd" fill-opacity="1"/><path d="M2398 264 2398 287.199 2395.42 289.891 2389.36 284.085C2387.73 282.528 2385.18 282.597 2383.64 284.232 2382.1 285.863 2382.16 288.449 2383.78 289.996L2392.75 298.59C2393.53 299.339 2394.53 299.716 2395.53 299.716L2398 298.659 2398 311 2389.27 309.222C2380.88 305.643 2375 297.264 2375 287.498 2375 277.735 2380.88 269.357 2389.27 265.778L2398 264Z" fill="#FFFEFD" fill-rule="evenodd" fill-opacity="1"/><path d="M2398.37 264C2411.42 264 2422 274.522 2422 287.498 2422 300.478 2411.42 311 2398.37 311L2398 310.926 2398 298.624 2398.44 298.436 2412.5 284.009C2414.07 282.397 2414.03 279.824 2412.4 278.263 2411.59 277.48 2410.54 277.099 2409.49 277.115 2408.45 277.13 2407.41 277.544 2406.62 278.35L2398 287.201 2398 264.074 2398.37 264Z" fill="#FFFEFD" fill-rule="evenodd" fill-opacity="1"/></g></svg>