<svg width="197" height="197" xmlns="http://www.w3.org/2000/svg" xmlns:xlink="http://www.w3.org/1999/xlink" xml:space="preserve" overflow="hidden"><defs><clipPath id="clip0"><rect x="2300" y="206" width="197" height="197"/></clipPath></defs><g clip-path="url(#clip0)" transform="translate(-2300 -206)"><path d="M2398.5 208C2452.35 208 2496 251.431 2496 305 2496 358.569 2452.35 402 2398.5 402 2344.65 402 2301 358.569 2301 305 2301 251.431 2344.65 208 2398.5 208Z" fill="#73B555" fill-rule="evenodd" fill-opacity="1"/><path d="M2364 247 2364 262.385 2364 262.384C2350.54 262.384 2339.63 273.333 2339.63 286.841 2339.63 300.348 2350.54 311.297 2364 311.297L2364 311.297 2364 326 2361.7 317.417C2360.91 317.348 2360.12 317.252 2359.33 317.119 2358.57 316.996 2357.82 316.845 2357.09 316.666L2351.97 324.219C2350.24 323.646 2348.57 322.964 2346.96 322.177L2348.63 313.238C2347.27 312.437 2345.99 311.535 2344.78 310.542L2336.92 315.115C2335.62 313.856 2334.41 312.515 2333.3 311.096L2338.66 303.772C2337.79 302.458 2337.02 301.08 2336.35 299.652L2327.28 300.353C2326.66 298.669 2326.15 296.938 2325.76 295.167L2333.75 290.901C2333.54 289.349 2333.44 287.765 2333.46 286.163L2325 282.854C2325.09 281.971 2325.2 281.082 2325.34 280.194 2325.49 279.288 2325.67 278.396 2325.87 277.517L2334.92 277.155C2335.41 275.626 2336 274.157 2336.7 272.752L2330.51 266.092C2331.44 264.54 2332.48 263.062 2333.6 261.666L2341.92 265.282C2343.01 264.133 2344.18 263.075 2345.42 262.11L2342.72 253.413C2344.23 252.424 2345.81 251.541 2347.43 250.767L2353.36 257.638C2354.82 257.079 2356.33 256.631 2357.88 256.301L2359.2 247.293 2364 247Z" fill="#FFFEFD" fill-rule="evenodd" fill-opacity="1"/><path d="M2364.61 247 2367 255.756C2367.78 255.825 2368.55 255.92 2369.33 256.043 2370.12 256.171 2370.9 256.327 2371.66 256.513L2376.81 248.994C2378.6 249.578 2380.34 250.281 2382 251.098L2380.3 260.004C2381.65 260.807 2382.93 261.706 2384.14 262.696L2392.08 258.156C2393.39 259.42 2394.61 260.775 2395.74 262.199L2390.31 269.495C2391.16 270.786 2391.93 272.136 2392.59 273.542L2401.73 272.862C2402.36 274.555 2402.88 276.298 2403.27 278.077L2395.18 282.321C2395.39 283.835 2395.48 285.373 2395.46 286.938L2404 290.25C2403.91 291.117 2403.8 291.989 2403.66 292.861 2403.51 293.796 2403.31 294.713 2403.1 295.621L2393.96 295.968C2393.47 297.451 2392.88 298.883 2392.2 300.248L2398.44 306.909C2397.49 308.47 2396.44 309.957 2395.29 311.362L2386.89 307.74C2385.81 308.862 2384.65 309.898 2383.42 310.847L2386.14 319.534C2384.61 320.525 2383.01 321.414 2381.35 322.19L2375.38 315.327C2373.92 315.88 2372.42 316.327 2370.87 316.655L2369.52 325.648C2367.73 325.886 2365.9 326 2364.05 325.982L2364 325.786 2364 311.129 2373.58 309.214C2382.42 305.513 2388.62 296.85 2388.62 286.751 2388.62 276.652 2382.42 267.988 2373.58 264.288L2364 262.373 2364 247.037 2364.61 247Z" fill="#FFFEFD" fill-rule="evenodd" fill-opacity="1"/><path d="M2404 312 2404 324.263C2393.3 324.263 2384.63 332.995 2384.63 343.767 2384.63 354.534 2393.3 363.267 2404 363.267L2404 375 2402.16 368.148C2401.54 368.094 2400.92 368.016 2400.29 367.911 2399.68 367.811 2399.09 367.692 2398.5 367.551L2394.44 373.573C2393.06 373.117 2391.73 372.569 2390.45 371.944L2391.78 364.818C2390.7 364.179 2389.68 363.454 2388.72 362.664L2382.47 366.314C2381.44 365.311 2380.48 364.243 2379.59 363.111L2383.86 357.267C2383.16 356.222 2382.55 355.123 2382.02 353.982L2374.81 354.543C2374.31 353.197 2373.91 351.82 2373.6 350.405L2379.96 347.001C2379.78 345.765 2379.71 344.501 2379.73 343.228L2373 340.587C2373.07 339.88 2373.15 339.177 2373.27 338.465 2373.39 337.744 2373.53 337.033 2373.7 336.33L2380.89 336.043C2381.27 334.824 2381.75 333.652 2382.3 332.534L2377.38 327.224C2378.12 325.982 2378.95 324.805 2379.84 323.692L2386.45 326.575C2387.31 325.659 2388.25 324.819 2389.23 324.043L2387.09 317.113C2388.29 316.319 2389.53 315.617 2390.83 315.001L2395.54 320.48C2396.7 320.038 2397.9 319.677 2399.13 319.417L2400.18 312.231 2404 312Z" fill="#FFFEFD" fill-rule="evenodd" fill-opacity="1"/><path d="M2404.48 312 2406.4 318.978C2407.02 319.032 2407.64 319.11 2408.26 319.21 2408.89 319.31 2409.52 319.437 2410.13 319.583L2414.24 313.588C2415.68 314.052 2417.07 314.615 2418.4 315.266L2417.04 322.371C2418.12 323.008 2419.15 323.727 2420.11 324.514L2426.46 320.893C2427.51 321.903 2428.49 322.981 2429.39 324.123L2425.04 329.94C2425.73 330.964 2426.34 332.042 2426.87 333.165L2434.18 332.624C2434.69 333.975 2435.1 335.362 2435.42 336.786L2428.94 340.166C2429.11 341.376 2429.19 342.604 2429.17 343.85L2436 346.493C2435.93 347.185 2435.84 347.876 2435.73 348.572 2435.6 349.318 2435.46 350.05 2435.28 350.774L2427.96 351.051C2427.58 352.234 2427.11 353.38 2426.55 354.467L2431.55 359.78C2430.8 361.022 2429.95 362.209 2429.03 363.328L2422.31 360.439C2421.45 361.336 2420.52 362.159 2419.54 362.914L2421.71 369.846C2420.49 370.633 2419.21 371.343 2417.88 371.966L2413.1 366.494C2411.93 366.931 2410.73 367.285 2409.5 367.549L2408.41 374.722C2406.98 374.909 2405.52 375 2404.04 374.991L2404 374.84 2404 363.141C2414.88 363.141 2423.69 354.435 2423.69 343.7 2423.69 332.961 2414.88 324.254 2404 324.254L2404 312.029 2404.48 312Z" fill="#FFFEFD" fill-rule="evenodd" fill-opacity="1"/><path d="M2442.13 282 2444.56 287.276 2446 287.213 2446 291.852 2443.4 291.771C2434.94 293.219 2429.25 301.29 2430.69 309.791 2431.77 316.17 2436.55 320.984 2442.44 322.382L2446 322.492 2446 326.733 2444.83 326.697 2442.43 332C2441.27 331.831 2440.16 331.575 2439.06 331.256L2439.16 325.45C2438.22 325.084 2437.31 324.655 2436.45 324.162L2431.99 327.884C2431.04 327.236 2430.14 326.519 2429.29 325.747L2431.88 320.558C2431.19 319.827 2430.56 319.041 2429.99 318.214L2424.37 319.626C2423.8 318.634 2423.29 317.602 2422.86 316.529L2427.43 312.979C2427.13 312.029 2426.9 311.038 2426.74 310.033L2421.07 308.854C2421.03 308.288 2421 307.722 2421 307.142 2421 306.557 2421.02 305.977 2421.05 305.401L2426.7 304.2C2426.84 303.186 2427.06 302.199 2427.35 301.24L2422.74 297.709C2423.17 296.631 2423.66 295.589 2424.22 294.589L2429.83 295.969C2430.39 295.133 2431.01 294.338 2431.69 293.598L2429.07 288.413C2429.91 287.627 2430.81 286.901 2431.75 286.239L2436.21 289.93C2437.07 289.423 2437.97 288.975 2438.9 288.605L2438.77 282.79C2439.87 282.452 2440.98 282.187 2442.13 282Z" fill="#FFFEFD" fill-rule="evenodd" fill-opacity="1"/><path d="M2450.04 282C2451.25 282.178 2452.43 282.438 2453.59 282.777L2453.47 288.588C2454.42 288.953 2455.34 289.383 2456.22 289.876L2460.79 286.166C2461.77 286.824 2462.7 287.551 2463.57 288.332L2460.9 293.518C2461.6 294.239 2462.23 295.016 2462.8 295.829L2468.57 294.427C2469.16 295.432 2469.68 296.478 2470.13 297.561L2465.42 301.102C2465.72 302.034 2465.96 303.002 2466.11 303.989L2471.93 305.172C2471.96 305.73 2471.99 306.292 2472 306.858 2472 307.466 2471.98 308.064 2471.94 308.663L2466.14 309.855C2465.99 310.842 2465.77 311.811 2465.49 312.747L2470.21 316.288C2469.77 317.375 2469.26 318.426 2468.68 319.436L2462.92 318.042C2462.35 318.865 2461.73 319.646 2461.05 320.372L2463.74 325.572C2462.86 326.362 2461.94 327.093 2460.97 327.76L2456.4 324.064C2455.53 324.567 2454.62 325.005 2453.67 325.38L2453.79 331.205C2452.67 331.548 2451.52 331.813 2450.34 332L2447.86 326.723C2447.35 326.764 2446.82 326.787 2446.3 326.792L2446 326.783 2446 322.54 2448.67 322.621C2457.35 321.172 2463.2 313.104 2461.72 304.597 2460.61 298.22 2455.7 293.406 2449.65 292.006L2446 291.895 2446 287.255 2446.04 287.254C2446.56 287.245 2447.07 287.268 2447.58 287.3L2450.04 282Z" fill="#FFFEFD" fill-rule="evenodd" fill-opacity="1"/></g></svg>